<svg width="20" height="20" viewBox="0 0 24 24" fill="none" xmlns="http://www.w3.org/2000/svg">
  <path d="M12 5C8.13 5 5.29 7.65 3.64 10.36C2.85 11.29 2.85 12.71 3.64 13.64C5.29 16.35 8.13 19 12 19C15.87 19 18.71 16.35 20.36 13.64C21.15 12.71 21.15 11.29 20.36 10.36C18.71 7.65 15.87 5 12 5ZM12 17C9.79 17 8 15.21 8 13C8 10.79 9.79 9 12 9C14.21 9 16 10.79 16 13C16 15.21 14.21 17 12 17ZM12 11C10.34 11 9 12.34 9 14C9 15.66 10.34 17 12 17C13.66 17 15 15.66 15 14C15 12.34 13.66 11 12 11Z" fill="currentColor"/>
</svg>